<?xml version="1.0" encoding="utf-8"?>
<!-- Generator: Adobe Illustrator 23.0.0, SVG Export Plug-In . SVG Version: 6.00 Build 0)  -->
<svg version="1.1" id="Layer_1" xmlns="http://www.w3.org/2000/svg" xmlns:xlink="http://www.w3.org/1999/xlink" x="0px" y="0px"
	 viewBox="0 0 18 18.9" style="enable-background:new 0 0 18 18.9;" xml:space="preserve">
<style type="text/css">
	.st0{fill:#9C9C9C;}
</style>
<title>trashCanAsset 1</title>
<g>
	<g id="Layer_1-2">
		<path class="st0" d="M2.5,17.8c0.1,0.7,0.6,1.2,1.3,1.2h10.5c0.7,0,1.2-0.5,1.3-1.2l1.2-12.4H1.3L2.5,17.8z"/>
		<path class="st0" d="M16.7,1.9h-5.1V1.3C11.6,0.6,11,0,10.3,0H7.7C7,0,6.4,0.6,6.4,1.3v0.6H1.3C0.6,1.9,0,2.5,0,3.2
			c0,0.7,0.6,1.3,1.3,1.3h15.4c0.7,0,1.3-0.6,1.3-1.3C18,2.5,17.4,1.9,16.7,1.9C16.7,1.9,16.7,1.9,16.7,1.9z"/>
	</g>
</g>
</svg>
